<?xml version="1.0" encoding="utf-8"?>
<svg version="1.1" id="Слой_1" xmlns="http://www.w3.org/2000/svg" xmlns:xlink="http://www.w3.org/1999/xlink" x="0px" y="0px"
     fill="currentColor" viewBox="0 0 512 512" style="enable-background:new 0 0 512 512;" xml:space="preserve">
<g>
	<g>
		<g>
			<path class="st3" d="M405.4,175.4L405.4,175.4l-5.9-3.4l-7.1-4.1l-5.9-3.4l-7-4.1l-6-3.4l-7-4.1l-6-3.5l-7-4l-6-3.5l-7-4l-6-3.5
				l-6.9-4l-6.1-3.5l-6.9-4l-6.1-3.5l-6.9-4l-6.1-3.5l-6.9-4l-6.1-3.6l-6.8-3.9l-6.2-3.6l-6.8-3.9l-6.2-3.6l-1.2-0.7
				c-3.5-2-7.7-2-11.2,0l-0.6,0.4l-6.7,3.9l-6.3,3.7l-6.7,3.9l-6.3,3.7l-6.6,3.8l-6.4,3.7l-6.6,3.8l-6.4,3.8l-6.5,3.8l-6.5,3.8
				l-6.5,3.8l-6.5,3.8l-6.4,3.7l-6.6,3.8l-6.4,3.7l-6.6,3.9l-6.3,3.7l-6.7,3.9l-6.3,3.6l-6.8,3.9l-6.2,3.6l-6.8,4l-6.2,3.6l-1.3,0.8
				c-3.4,2-5.6,5.7-5.6,9.6v174.3c0,4,2.1,7.7,5.6,9.7l1.6,0.9l5.8,3.4l7.2,4.1l5.8,3.4l7.1,4.1l5.9,3.4l7.1,4.1l5.9,3.4l7.1,4.1
				l5.9,3.4l7.1,4.1l5.9,3.4l7,4.1l6,3.5l7,4l6,3.5l7,4l6,3.5l6.9,4l6.1,3.5l6.9,4l6.1,3.5l6.9,4h0l6.1,3.5l1.3,0.7
				c3.5,2,7.7,2,11.2,0l0.5-0.3l6.8-4l6.2-3.6l6.8-3.9l6.2-3.6l6.7-3.9h0l6.3-3.6l6.7-3.9l6.3-3.7l6.6-3.9l6.4-3.7l6.6-3.8l6.4-3.8
				l6.5-3.8h0l6.5-3.8l6.5-3.8l6.5-3.8l6.4-3.7l6.6-3.8l6.4-3.7l6.6-3.9l6.3-3.7l6.7-3.9l6.3-3.6l1.2-0.7c3.4-2,5.5-5.7,5.5-9.6
				V185.9c0-4-2.1-7.7-5.6-9.7L405.4,175.4z M399.5,354.1c0,3.2-1.7,6.2-4.5,7.9l-2.2,1.3h0l-6.3,3.6l-6.7,3.9l-6.3,3.7l-6.6,3.9
				l-6.4,3.7l-6.6,3.8l-6.4,3.8l-6.5,3.8l-6.5,3.8l-6.5,3.8l-6.5,3.8l-6.4,3.7l-6.6,3.8l-6.4,3.7l-6.6,3.9l-6.3,3.7l-6.7,3.9
				l-6.3,3.6l-6.8,3.9l-6.2,3.6l-6.8,4l-1.6,0.9c-2.8,1.6-6.3,1.6-9.1,0l-2.3-1.3l-6.1-3.5l-6.9-4l-6.1-3.5l-6.9-4l-6.1-3.5l-6.9-4
				l-6-3.5h0l-6.9-4l-6-3.5h0l-7-4l-6-3.5l-7-4l-6-3.4l-7-4.1l-5.9-3.4l-7.1-4.1l-5.9-3.4l-7.1-4.1l-5.9-3.4l-7.1-4.1l-5.9-3.4
				l-2.6-1.5c-2.8-1.6-4.5-4.6-4.5-7.9V192.6c0-3.2,1.7-6.2,4.5-7.9l2.3-1.3l6.2-3.6l6.8-3.9l6.2-3.6l6.7-3.9l6.3-3.6l6.7-3.9
				l6.3-3.7l6.6-3.9l6.4-3.7l6.6-3.8l6.4-3.8l6.5-3.8l6.5-3.8l6.5-3.8l6.5-3.8l6.4-3.7l6.6-3.8l6.4-3.7l6.6-3.9l6.3-3.7l6.7-3.9
				l1.7-1c2.8-1.6,6.3-1.7,9.1,0l2.2,1.3l6.2,3.6l6.8,3.9l6.2,3.6l6.8,3.9l6.2,3.6l6.8,3.9l6.1,3.6l6.9,4l6.1,3.5l6.9,4l6.1,3.5
				l6.9,4l6.1,3.5l6.9,4l6,3.5l7,4l6,3.5l7,4l6,3.5l7,4.1l6,3.4l2.5,1.4c2.8,1.6,4.5,4.6,4.5,7.9V354.1z"/>
			<path class="st5" d="M405.4,175.4L405.4,175.4l-5.9-3.4l-7.1-4.1l-5.9-3.4l-7-4.1l-6-3.4l-7-4.1l-6-3.5l-7-4l-6-3.5l-7-4l-6-3.5
				l-6.9-4l-6.1-3.5l-6.9-4l-6.1-3.5l-6.9-4l-6.1-3.5l-6.9-4l-6.1-3.6l-6.8-3.9l-6.2-3.6l-6.8-3.9l-6.2-3.6l-1.2-0.7
				c-3.5-2-7.7-2-11.2,0l-0.6,0.4l-6.7,3.9l-6.3,3.7l-6.7,3.9l-6.3,3.7l-6.6,3.8l-6.4,3.7l-6.6,3.8l-6.4,3.8l-6.5,3.8l-6.5,3.8
				l-6.5,3.8l-6.5,3.8l-6.4,3.7l-6.6,3.8l-6.4,3.7l-6.6,3.9l-6.3,3.7l-6.7,3.9l-6.3,3.6l-6.8,3.9l-6.2,3.6l-6.8,4l-6.2,3.6l-1.3,0.8
				c-3.4,2-5.6,5.7-5.6,9.6v174.3c0,4,2.1,7.7,5.6,9.7l1.6,0.9l5.8,3.4l7.2,4.1l5.8,3.4l7.1,4.1l5.9,3.4l7.1,4.1l5.9,3.4l7.1,4.1
				l5.9,3.4l7.1,4.1l5.9,3.4l7,4.1l6,3.5l7,4l6,3.5l7,4l6,3.5l6.9,4l6.1,3.5l6.9,4l6.1,3.5l6.9,4h0l6.1,3.5l1.3,0.7
				c3.5,2,7.7,2,11.2,0l0.5-0.3l6.8-4l6.2-3.6l6.8-3.9l6.2-3.6l6.7-3.9h0l6.3-3.6l6.7-3.9l6.3-3.7l6.6-3.9l6.4-3.7l6.6-3.8l6.4-3.8
				l6.5-3.8h0l6.5-3.8l6.5-3.8l6.5-3.8l6.4-3.7l6.6-3.8l6.4-3.7l6.6-3.9l6.3-3.7l6.7-3.9l6.3-3.6l1.2-0.7c3.4-2,5.5-5.7,5.5-9.6
				V185.9c0-4-2.1-7.7-5.6-9.7L405.4,175.4z M399.5,354.1c0,3.2-1.7,6.2-4.5,7.9l-2.2,1.3h0l-6.3,3.6l-6.7,3.9l-6.3,3.7l-6.6,3.9
				l-6.4,3.7l-6.6,3.8l-6.4,3.8l-6.5,3.8l-6.5,3.8l-6.5,3.8l-6.5,3.8l-6.4,3.7l-6.6,3.8l-6.4,3.7l-6.6,3.9l-6.3,3.7l-6.7,3.9
				l-6.3,3.6l-6.8,3.9l-6.2,3.6l-6.8,4l-1.6,0.9c-2.8,1.6-6.3,1.6-9.1,0l-2.3-1.3l-6.1-3.5l-6.9-4l-6.1-3.5l-6.9-4l-6.1-3.5l-6.9-4
				l-6-3.5h0l-6.9-4l-6-3.5h0l-7-4l-6-3.5l-7-4l-6-3.4l-7-4.1l-5.9-3.4l-7.1-4.1l-5.9-3.4l-7.1-4.1l-5.9-3.4l-7.1-4.1l-5.9-3.4
				l-2.6-1.5c-2.8-1.6-4.5-4.6-4.5-7.9V192.6c0-3.2,1.7-6.2,4.5-7.9l2.3-1.3l6.2-3.6l6.8-3.9l6.2-3.6l6.7-3.9l6.3-3.6l6.7-3.9
				l6.3-3.7l6.6-3.9l6.4-3.7l6.6-3.8l6.4-3.8l6.5-3.8l6.5-3.8l6.5-3.8l6.5-3.8l6.4-3.7l6.6-3.8l6.4-3.7l6.6-3.9l6.3-3.7l6.7-3.9
				l1.7-1c2.8-1.6,6.3-1.7,9.1,0l2.2,1.3l6.2,3.6l6.8,3.9l6.2,3.6l6.8,3.9l6.2,3.6l6.8,3.9l6.1,3.6l6.9,4l6.1,3.5l6.9,4l6.1,3.5
				l6.9,4l6.1,3.5l6.9,4l6,3.5l7,4l6,3.5l7,4l6,3.5l7,4.1l6,3.4l2.5,1.4c2.8,1.6,4.5,4.6,4.5,7.9V354.1z"/>
		</g>
	</g>
</g>
<g>
	<path class="st7" d="M144,362.5v-175h12.8v175H144z"/>
	<path class="st7" d="M286.3,363.8c-21.7,0-38.8-6.3-51.3-19c-12.5-12.7-18.8-31.5-18.8-56.5V187.5H229v100.3c0,21.8,5,38,15,48.5
		s24.2,15.8,42.5,15.8c18.2,0,32.3-5.3,42.3-15.8s15-26.7,15-48.5V187.5h12.8v100.8c0,25-6.3,43.8-18.8,56.5
		C325.3,357.4,308.1,363.8,286.3,363.8z"/>
</g>
</svg>
